#!OML:ASF F:\VICON\USERDATA\INSTALL\rory3\rory3.ASF
:FULLY-SPECIFIED
:DEGREES
1635
root -0.133338 17.6784 -4.02332 -358.785 26.0199 7.04437
lowerback 13.3427 3.00395 -0.407404
upperback 1.06067 3.91639 -0.305351
thorax -6.35903 1.92802 -0.820123
lowerneck -18.5183 0.833689 -10.0106
upperneck 40.4442 4.90917 2.65645
head 17.8884 1.01112 4.07097
rclavicle -2.37548e-014 4.77083e-015
rhumerus -36.326 -10.7262 -80.5797
rradius 39.1122
rwrist 4.44745
rhand -21.187 11.9047
rfingers 7.12502
rthumb 5.19379 -18.0116
lclavicle -2.37548e-014 4.77083e-015
lhumerus -26.993 6.38662 77.2907
lradius 30.8844
lwrist -4.00455
lhand -18.8958 23.9863
lfingers 7.12502
lthumb 7.40572 53.8367
rfemur -9.63731 -10.4928 18.591
rtibia 45.0081
rfoot -19.4385 -1.82247
rtoes -5.59269
lfemur -9.22885 0.788426 -26.6594
ltibia 24.5597
lfoot -8.51109 -19.7298
ltoes 6.82001
1636
root -0.100874 17.6771 -4.07674 -358.848 26.0749 7.0131
lowerback 13.4692 3.06304 -0.00220034
upperback 1.11817 4.05192 -0.34986
thorax -6.33589 1.98304 -1.12377
lowerneck -18.6391 0.812265 -10.1539
upperneck 40.6706 4.98146 2.66389
head 18.0441 1.00755 4.13185
rclavicle -1.45113e-014 -1.03368e-014
rhumerus -36.1467 -10.5895 -80.6224
rradius 38.9609
rwrist 4.52362
rhand -20.1433 11.1783
rfingers 7.12502
rthumb 6.20143 -18.7109
lclavicle -1.45113e-014 -1.03368e-014
lhumerus -26.9111 6.71414 77.3422
lradius 30.9857
lwrist -4.157
lhand -18.962 24.0895
lfingers 7.12502
lthumb 7.34187 53.9421
rfemur -9.06991 -9.81202 18.8132
rtibia 43.8241
rfoot -19.5442 -2.03896
rtoes -1.16254
lfemur -9.45002 0.730742 -26.7169
ltibia 24.8195
lfoot -8.02597 -20.1348
ltoes 7.94168
1637
root -0.0660794 17.6803 -4.13167 -358.892 26.0847 7.00883
lowerback 13.5815 3.12438 0.42567
upperback 1.16194 4.19434 -0.399393
thorax -6.31507 2.04096 -1.44638
lowerneck -18.5296 0.839719 -10.2191
upperneck 40.7308 5.1048 2.54786
head 18.0459 1.03255 4.11297
rclavicle -3.85642e-014 -1.59028e-014
rhumerus -36.1693 -10.3058 -80.6889
rradius 39.0423
rwrist 4.63641
rhand -20.0175 10.6663
rfingers 7.12502
rthumb 6.32289 -19.2193
lclavicle -3.85642e-014 -1.59028e-014
lhumerus -26.9468 7.02305 77.4338
lradius 31.1911
lwrist -4.11623
lhand -19.0938 24.3369
lfingers 7.12502
lthumb 7.21457 54.1939
rfemur -8.55477 -9.16669 18.95
rtibia 42.7505
rfoot -19.5091 -1.79815
rtoes 3.95804
lfemur -9.70712 0.553482 -26.8076
ltibia 25.0949
lfoot -7.49302 -20.394
ltoes 9.07423
1638
root -0.0269987 17.6872 -4.19487 -358.767 26.047 7.03397
lowerback 13.6095 3.17541 0.897717
upperback 1.15091 4.32809 -0.479185
thorax -6.29788 2.09297 -1.82067
lowerneck -18.4024 0.86239 -10.1996
upperneck 40.673 5.22547 2.30265
head 17.9848 1.05679 4.01077
rclavicle -1.32192e-014 7.15625e-015
rhumerus -36.202 -9.88824 -80.7499
rradius 39.0487
rwrist 4.73931
rhand -20.511 10.7649
rfingers 7.12502
rthumb 5.84651 -19.1345
lclavicle -1.32192e-014 7.15625e-015
lhumerus -26.9815 7.48195 77.5143
lradius 31.3455
lwrist -3.98566
lhand -19.2278 24.0067
lfingers 7.12502
lthumb 7.08526 53.8681
rfemur -8.32973 -8.59075 18.9867
rtibia 41.7844
rfoot -20.0473 -3.91531
rtoes 0.75711
lfemur -10.2095 0.152568 -26.957
ltibia 25.4102
lfoot -7.10856 -20.4537
ltoes 9.4636
1639
root 0.0112107 17.6958 -4.25829 -358.675 26.0679 6.97826
lowerback 13.623 3.22136 1.37739
upperback 1.16803 4.45994 -0.5031
thorax -6.24425 2.14557 -2.13773
lowerneck -18.3619 0.854213 -10.1363
upperneck 40.6134 5.29519 2.04679
head 17.953 1.06358 3.88992
rclavicle 6.61953e-014 1.59028e-015
rhumerus -36.0151 -9.68019 -80.6793
rradius 38.7719
rwrist 4.85085
rhand -20.6033 11.192
rfingers 7.12502
rthumb 5.75737 -18.7098
lclavicle 6.61953e-014 1.59028e-015
lhumerus -26.9675 8.05513 77.6668
lradius 31.4869
lwrist -3.95722
lhand -19.4423 23.5958
lfingers 7.12502
lthumb 6.87823 53.4641
rfemur -8.16639 -8.12682 19.0572
rtibia 40.917
rfoot -20.4203 -5.49098
rtoes -1.06731
lfemur -10.722 -0.403762 -27.0227
ltibia 25.7291
lfoot -7.05993 -20.3064
ltoes 8.60632
1640
root 0.0490122 17.7047 -4.31893 -358.571 26.1598 6.90069
lowerback 13.5436 3.25243 1.81651
upperback 1.19335 4.56754 -0.478358
thorax -6.13656 2.18962 -2.36942
lowerneck -18.2439 0.874286 -10.1369
upperneck 40.5081 5.37296 1.89347
head 17.8647 1.08362 3.8245
rclavicle -1.58034e-014 -9.54166e-015
rhumerus -35.7747 -9.61374 -80.4885
rradius 38.4069
rwrist 4.83832
rhand -20.4785 11.4963
rfingers 7.12502
rthumb 5.87787 -18.4022
lclavicle -1.58034e-014 -9.54166e-015
lhumerus -26.9943 8.93561 77.7542
lradius 31.6232
lwrist -4.41076
lhand -19.2822 23.5313
lfingers 7.12502
lthumb 7.0327 53.3945
rfemur -8.03776 -7.72002 19.1141
rtibia 40.1564
rfoot -20.5994 -6.02543
rtoes -0.0635433
lfemur -11.1944 -0.91541 -27.0188
ltibia 26.0143
lfoot -6.91642 -20.3517
ltoes 7.79862
1641
root 0.0877878 17.7142 -4.38297 -358.286 26.3352 7.01418
lowerback 13.44 3.25432 2.13464
upperback 1.16557 4.6147 -0.496334
thorax -6.07964 2.20545 -2.568
lowerneck -18.2253 0.895262 -10.3073
upperneck 40.4889 5.49521 1.85069
head 17.8384 1.10506 3.85601
rclavicle 7.91163e-014 -1.03368e-014
rhumerus -35.6361 -9.39834 -80.2595
rradius 38.1569
rwrist 4.74862
rhand -20.2648 11.4049
rfingers 7.12502
rthumb 6.08414 -18.4878
lclavicle 7.91163e-014 -1.03368e-014
lhumerus -27.1356 9.68438 77.889
lradius 31.8234
lwrist -4.60996
lhand -19.7358 24.6181
lfingers 7.12502
lthumb 6.5949 54.4954
rfemur -8.0622 -7.42334 18.9288
rtibia 39.5077
rfoot -20.6049 -6.02346
rtoes 1.7482
lfemur -11.7193 -1.30982 -27.1962
ltibia 26.2071
lfoot -6.66389 -20.6792
ltoes 6.73865
1642
root 0.124129 17.7241 -4.44968 -357.885 26.5186 7.25825
lowerback 13.3562 3.2681 2.28974
upperback 1.11599 4.65284 -0.52394
thorax -6.06897 2.21959 -2.68643
lowerneck -18.339 0.905134 -10.5346
upperneck 40.5503 5.63106 1.85385
head 17.8883 1.12231 3.93001
rclavicle -9.73051e-014 0
rhumerus -35.5611 -9.09095 -80.0069
rradius 38.0536
rwrist 4.64432
rhand -20.0475 11.2752
rfingers 7.12502
rthumb 6.29391 -18.6113
lclavicle -9.73051e-014 0
lhumerus -27.3642 9.96999 78.2887
lradius 32.2534
lwrist -3.84748
lhand -20.5315 25.9219
lfingers 7.12502
lthumb 5.82665 55.8218
rfemur -8.21886 -7.20521 18.5778
rtibia 38.967
rfoot -20.7212 -6.39733
rtoes 1.88616
lfemur -12.2946 -1.59921 -27.4938
ltibia 26.292
lfoot -6.15718 -21.1869
ltoes 6.80735
1643
root 0.160461 17.7318 -4.51366 -357.565 26.6519 7.4021
lowerback 13.2502 3.29785 2.47891
upperback 1.093 4.71721 -0.534756
thorax -6.01463 2.24733 -2.80776
lowerneck -18.4376 0.895309 -10.5554
upperneck 40.5918 5.71055 1.71623
head 17.9423 1.12857 3.8912
rclavicle -8.24956e-015 3.18055e-015
rhumerus -35.4195 -8.79543 -79.7984
rradius 37.9154
rwrist 4.42478
rhand -19.8652 11.3484
rfingers 7.12502
rthumb 6.46992 -18.5327
lclavicle -8.24956e-015 3.18055e-015
lhumerus -27.5921 10.0566 78.7728
lradius 32.7839
lwrist -2.75324
lhand -21.0514 25.7394
lfingers 7.12502
lthumb 5.32475 55.6525
rfemur -8.39837 -7.03156 18.2721
rtibia 38.4977
rfoot -20.8844 -6.86976
rtoes 1.79561
lfemur -12.8324 -1.78682 -27.6753
ltibia 26.302
lfoot -5.66056 -21.7433
ltoes 6.46125
1644
root 0.196997 17.7373 -4.57469 -357.308 26.7379 7.48852
lowerback 13.1786 3.32166 2.64802
upperback 1.03745 4.77408 -0.506326
thorax -6.01906 2.27032 -2.87923
lowerneck -18.4163 0.89957 -10.5317
upperneck 40.6054 5.78677 1.54631
head 17.9521 1.14003 3.8234
rclavicle -3.46879e-014 -2.54444e-014
rhumerus -35.2666 -8.41746 -79.5656
rradius 37.6538
rwrist 4.21536
rhand -19.8582 11.274
rfingers 7.12502
rthumb 6.47673 -18.6069
lclavicle -3.46879e-014 -2.54444e-014
lhumerus -27.9524 9.91264 79.3268
lradius 33.3538
lwrist -1.01324
lhand -22.4967 25.6637
lfingers 7.12502
lthumb 3.92915 55.6073
rfemur -8.5652 -6.78295 18.0141
rtibia 38.0652
rfoot -20.8953 -7.00517
rtoes 1.96082
lfemur -13.2916 -1.90711 -27.7682
ltibia 26.26
lfoot -5.55 -22.2339
ltoes 4.72295
1645
root 0.229812 17.7439 -4.63499 -357.118 26.8457 7.44223
lowerback 13.0814 3.36346 2.77857
upperback 0.988343 4.85695 -0.338199
thorax -6.01613 2.30876 -2.78466
lowerneck -18.3648 0.870075 -10.6265
upperneck 40.6677 5.86332 1.37218
head 17.9818 1.13142 3.77601
rclavicle -6.44062e-014 9.54166e-015
rhumerus -35.1486 -8.1123 -79.1394
rradius 37.302
rwrist 4.18977
rhand -20.1604 11.2402
rfingers 7.12502
rthumb 6.18493 -18.6495
lclavicle -6.44062e-014 9.54166e-015
lhumerus -28.3324 10.1119 79.9061
lradius 33.7026
lwrist 0.0571478
lhand -23.3982 25.9384
lfingers 7.12502
lthumb 3.05858 55.8962
rfemur -8.67241 -6.54243 17.8966
rtibia 37.6434
rfoot -20.8854 -6.93655
rtoes 1.98202
lfemur -13.6803 -2.02264 -27.6503
ltibia 26.1676
lfoot -5.50398 -22.738
ltoes 3.05598
1646
root 0.260706 17.7468 -4.69551 -357.041 27.0759 7.37083
lowerback 13.016 3.38569 2.84125
upperback 1.0523 4.90908 -0.075229
thorax -5.92717 2.33875 -2.5448
lowerneck -18.4201 0.798224 -10.763
upperneck 40.6704 5.91598 1.15556
head 18.0106 1.10077 3.71193
rclavicle -1.05058e-013 -2.22639e-014
rhumerus -34.9515 -7.95364 -78.5409
rradius 36.9081
rwrist 4.5235
rhand -20.1831 11.4359
rfingers 7.12502
rthumb 6.16307 -18.4544
lclavicle -1.05058e-013 -2.22639e-014
lhumerus -28.5473 10.6681 80.4472
lradius 33.8179
lwrist 0.0179138
lhand -22.258 25.6163
lfingers 7.12502
lthumb 4.15963 55.5554
rfemur -8.60865 -6.45192 17.7629
rtibia 37.2219
rfoot -21.0147 -6.84509
rtoes 1.84327
lfemur -13.8913 -2.17741 -27.4596
ltibia 26.0341
lfoot -5.38782 -23.3559
ltoes 1.48696
1647
root 0.2935 17.749 -4.75657 -356.916 27.3256 7.43859
lowerback 12.9947 3.37436 2.8661
upperback 1.12317 4.90487 0.0698904
thorax -5.85147 2.34053 -2.40112
lowerneck -18.5197 0.779163 -10.724
upperneck 40.643 5.98159 0.93762
head 18.0345 1.10202 3.61907
rclavicle 3.598e-014 -2.38542e-014
rhumerus -34.7387 -7.73623 -78.0726
rradius 36.644
rwrist 4.65758
rhand -19.6759 11.3169
rfingers 7.12502
rthumb 6.65267 -18.5586
lclavicle 3.598e-014 -2.38542e-014
lhumerus -28.686 10.7974 80.9945
lradius 34.0254
lwrist 0.442068
lhand -21.6652 25.9072
lfingers 7.12502
lthumb 4.73205 55.8344
rfemur -8.56607 -6.41787 17.4513
rtibia 36.8139
rfoot -21.3038 -6.77377
rtoes 1.37506
lfemur -14.0728 -2.36944 -27.401
ltibia 25.8463
lfoot -5.12971 -24.0663
ltoes 0.489086
1648
root 0.324789 17.7561 -4.81615 -356.735 27.4071 7.47899
lowerback 13.0829 3.38262 2.98024
upperback 1.04138 4.93773 0.0873069
thorax -5.97733 2.34939 -2.46206
lowerneck -18.523 0.825775 -10.5919
upperneck 40.6861 6.05331 0.841855
head 18.0646 1.1365 3.56829
rclavicle -4.07509e-014 2.38542e-014
rhumerus -34.6687 -7.51714 -77.7919
rradius 36.4632
rwrist 4.49435
rhand -19.1928 10.8964
rfingers 7.12502
rthumb 7.11901 -18.9639
lclavicle -4.07509e-014 2.38542e-014
lhumerus -29.0004 10.7894 81.2611
lradius 34.5791
lwrist -0.326519
lhand -19.5497 28.925
lfingers 7.12502
lthumb 6.77451 58.7966
rfemur -8.62 -6.23327 17.1847
rtibia 36.4013
rfoot -21.5681 -6.60919
rtoes 1.64703
lfemur -14.3613 -2.25306 -27.3098
ltibia 25.611
lfoot -4.79809 -25.1209
ltoes -0.748317
